<?xml version="1.0" standalone="no"?>
<!DOCTYPE svg PUBLIC "-//W3C//DTD SVG 20010904//EN"
 "http://www.w3.org/TR/2001/REC-SVG-20010904/DTD/svg10.dtd">
<svg version="1.0" xmlns="http://www.w3.org/2000/svg"
 width="512.000000pt" height="512.000000pt" viewBox="0 0 512.000000 512.000000"
 preserveAspectRatio="xMidYMid meet">
<metadata>
Created by potrace 1.11, written by Peter Selinger 2001-2013
</metadata>
<g transform="translate(0.000000,512.000000) scale(0.100000,-0.100000)"
fill="#000000" stroke="none">
<path d="M1120 4743 c-56 -21 -104 -88 -129 -178 -6 -22 -40 -207 -76 -410
-36 -204 -98 -548 -136 -765 -39 -217 -99 -559 -135 -760 -137 -771 -194
-1093 -234 -1315 -22 -126 -59 -333 -81 -459 -50 -278 -51 -376 -6 -445 45
-68 64 -73 267 -69 l178 3 39 31 c58 47 75 105 133 444 28 168 59 346 69 395
l17 90 334 0 334 0 7 -35 c4 -19 22 -127 39 -240 17 -113 42 -277 55 -364 29
-183 53 -248 111 -292 l37 -29 232 0 c260 0 273 3 306 66 35 69 34 127 -6 354
-63 361 -191 1104 -365 2125 -254 1483 -291 1692 -306 1729 -23 54 -63 102
-100 117 -26 11 -93 14 -301 13 -147 0 -275 -3 -283 -6z m299 -1448 c17 -110
58 -387 91 -615 33 -228 73 -507 90 -620 16 -113 30 -211 30 -217 0 -10 -58
-13 -255 -13 -250 0 -255 0 -255 20 0 12 18 132 40 268 21 136 60 375 85 532
83 522 139 862 142 854 1 -5 16 -99 32 -209z"/>
<path d="M3435 4741 c-36 -15 -76 -60 -100 -114 -16 -34 -39 -138 -69 -307
-25 -140 -75 -421 -111 -625 -37 -203 -98 -545 -136 -760 -167 -942 -211
-1192 -244 -1380 -20 -110 -65 -364 -101 -565 -58 -317 -66 -376 -61 -451 5
-95 25 -148 65 -176 23 -15 53 -19 188 -21 176 -4 226 4 273 44 53 45 60 70
162 654 21 124 43 235 49 248 l10 22 324 0 c196 0 327 -4 331 -10 6 -9 54
-305 99 -605 34 -226 63 -291 146 -336 34 -18 366 -25 443 -10 82 18 127 80
127 178 0 26 -39 271 -85 543 -162 940 -236 1376 -300 1750 -35 206 -96 562
-135 790 -39 228 -91 531 -115 672 -51 304 -65 356 -107 403 -56 65 -58 65
-360 64 -150 0 -282 -4 -293 -8z m317 -1529 c40 -264 186 -1269 195 -1339 l6
-43 -257 0 c-141 0 -256 3 -256 8 0 18 220 1391 247 1539 9 51 19 90 22 87 3
-3 23 -117 43 -252z"/>
</g>
</svg>
